<svg width="24" height="24" viewBox="0 0 24 24" fill="none" xmlns="http://www.w3.org/2000/svg">
<path fill-rule="evenodd" clip-rule="evenodd" d="M19 18H5L7.22 6.92001C7.43814 5.81348 8.03433 4.81725 8.90642 4.10207C9.7785 3.38689 10.8722 2.99728 12 3.00001C13.1278 2.99728 14.2215 3.38689 15.0936 4.10207C15.9657 4.81725 16.5619 5.81348 16.78 6.92001L19 18Z" stroke="black" stroke-width="0.8" stroke-linecap="round" stroke-linejoin="round"/>
<path d="M3 18H21" stroke="black" stroke-width="0.8" stroke-linecap="round" stroke-linejoin="round"/>
<path d="M15 18C15 18.7956 14.6839 19.5587 14.1213 20.1213C13.5587 20.6839 12.7956 21 12 21C11.2044 21 10.4413 20.6839 9.87868 20.1213C9.31607 19.5587 9 18.7956 9 18" stroke="black" stroke-width="0.8" stroke-linecap="round" stroke-linejoin="round"/>
</svg>
