<svg width="24" height="24" viewBox="0 0 24 24" fill="none" xmlns="http://www.w3.org/2000/svg">
<path d="M14.5 18.5004H5.9C5.05992 18.5004 4.63988 18.5004 4.31901 18.3369C4.03677 18.1931 3.8073 17.9636 3.66349 17.6814C3.5 17.3605 3.5 16.9405 3.5 16.1004V6.9C3.5 6.05992 3.5 5.63988 3.66349 5.31901C3.8073 5.03677 4.03677 4.8073 4.31901 4.66349C4.63988 4.5 5.05992 4.5 5.9 4.5H8.47237C8.84808 4.5 9.03594 4.5 9.20646 4.55179C9.35741 4.59763 9.49785 4.6728 9.61972 4.77298C9.75739 4.88614 9.86159 5.04245 10.07 5.35507L10.93 6.64533C11.1384 6.95795 11.2426 7.11426 11.3803 7.22742C11.5022 7.3276 11.6426 7.40277 11.7935 7.44861C11.9641 7.5004 12.1519 7.5004 12.5276 7.5004H16.5004C16.965 7.5004 17.1973 7.5004 17.3879 7.55143C17.9058 7.69008 18.3103 8.09459 18.449 8.61248C18.5 8.80308 18.5 9.03539 18.5 9.5M9.5 13.5H16.5" stroke="#222222" stroke-width="0.8" stroke-linecap="round"/>
<path d="M5.95311 11.1411C6.14982 10.551 6.24817 10.2559 6.4306 10.0378C6.5917 9.84513 6.79858 9.69602 7.03229 9.60411C7.29693 9.50003 7.60796 9.50004 8.23003 9.50006L18.1704 9.50032C19.2946 9.50035 19.8567 9.50037 20.2256 9.73571C20.5486 9.94172 20.7805 10.2635 20.8738 10.635C20.9804 11.0595 20.8026 11.5928 20.4471 12.6593L19.0471 16.8593C18.8504 17.4495 18.7521 17.7445 18.5696 17.9627C18.4085 18.1553 18.2017 18.3044 17.968 18.3963C17.7033 18.5004 17.3923 18.5004 16.7703 18.5004H6.8299C5.7057 18.5004 5.1436 18.5004 4.77462 18.2651C4.45163 18.0591 4.21971 17.7373 4.12641 17.3657C4.01982 16.9413 4.19757 16.408 4.55306 15.3415L5.95311 11.1411Z" stroke="#222222" stroke-width="0.8"/>
</svg>
