<svg width="24" height="24" viewBox="0 0 24 24" fill="none" xmlns="http://www.w3.org/2000/svg">
<path d="M12 11.5C13.933 11.5 15.5 9.933 15.5 8C15.5 6.067 13.933 4.5 12 4.5C10.067 4.5 8.5 6.067 8.5 8C8.5 9.933 10.067 11.5 12 11.5Z" stroke="white" stroke-width="0.8" stroke-linecap="round"/>
<path d="M4.84932 16.9479C5.48902 14.6034 7.91492 13.5 10.3452 13.5H13.6552C16.0855 13.5 18.5114 14.6034 19.1511 16.9479C19.2822 17.4287 19.387 17.9489 19.4464 18.5015C19.5054 19.0507 19.0525 19.5 18.5002 19.5H5.50019C4.94791 19.5 4.49501 19.0507 4.55401 18.5015C4.61339 17.9489 4.71815 17.4287 4.84932 16.9479Z" stroke="white" stroke-width="0.8" stroke-linecap="round"/>
</svg>
