<svg width="24" height="24" viewBox="0 0 24 24" fill="none" xmlns="http://www.w3.org/2000/svg">
<path d="M2 20H22" stroke="black" stroke-width="0.8" stroke-linecap="round" stroke-linejoin="round"/>
<path d="M5 20V8.2C5 8.14696 5.02107 8.09609 5.05858 8.05858C5.09609 8.02107 5.14696 8 5.2 8H7.8C7.85304 8 7.90391 8.02107 7.94142 8.05858C7.97893 8.09609 8 8.14696 8 8.2V20" stroke="black" stroke-width="0.8" stroke-linecap="round" stroke-linejoin="round"/>
<path d="M11 20V4.27C11 4.12 11.09 4 11.2 4H13.8C13.91 4 14 4.12 14 4.27V20" stroke="black" stroke-width="0.8" stroke-linecap="round" stroke-linejoin="round"/>
<path d="M17 20V11.15C17 11.07 17.09 11 17.2 11H19.8C19.91 11 20 11.07 20 11.15V20" stroke="black" stroke-width="0.8" stroke-linecap="round" stroke-linejoin="round"/>
</svg>
