<svg width="24" height="24" viewBox="0 0 24 24" fill="none" xmlns="http://www.w3.org/2000/svg">
<path d="M14.4999 6.5C15.2371 6.64382 15.9688 6.96892 16.4999 7.5C17.031 8.03108 17.3561 8.76284 17.4999 9.5M14.9999 3C16.5314 3.17014 17.9096 3.91107 18.9999 5C20.0902 6.08893 20.8278 7.46869 20.9999 9M20.9994 16.4767V19.1864C21.0036 20.2223 20.0722 21.0873 19.0264 20.9929C10 21 2.99999 13.935 3.00706 4.96919C2.91287 3.92895 3.77357 3.00106 4.8081 3.00009H7.52324C7.96246 2.99577 8.38828 3.151 8.72131 3.43684C9.66812 4.24949 10.2771 7.00777 10.0428 8.10428C9.85987 8.96036 8.99689 9.55929 8.41019 10.1448C9.69857 12.4062 11.5746 14.2785 13.8404 15.5644C14.4271 14.9788 15.0273 14.1176 15.885 13.935C16.9854 13.7008 19.7614 14.3106 20.5708 15.264C20.8579 15.6021 21.0104 16.0337 20.9994 16.4767Z" stroke="black" stroke-width="0.8" stroke-linecap="round" stroke-linejoin="round"/>
</svg>
